<svg xmlns="http://www.w3.org/2000/svg" viewBox="0 0 214 33"><defs><style>.cls-1{fill:#a87c2f;}</style></defs><g id="Layer_2" data-name="Layer 2"><path class="cls-1" d="M211.81751,27.29485a.03317.03317,0,0,0-.03387-.03386,1.79875,1.79875,0,0,1-.37-1.1465,7.08522,7.08522,0,0,1,.16826-2.057c.06736-.43849.20175-.94436.23562-1.38248h-.13474a7.2138,7.2138,0,0,1,.26911-1.07913c.13476-.30336,0-.60711.10087-.94436.23564-.43852.303-.70838-.10087-1.01177.06738-.03349-.10088-.16862.03388-.30336.10088-.06738.20175-.13476.20175-.26987.0335-.13476-.10087.13511-.16825.13511.13474-.26987-.20175-.23637-.23562-.37111a.45713.45713,0,0,1,0-.50587c-.23563-.20212-.50474-.06739-.80737-.10088-.16826-.10124-.10088-.26987-.23561-.23637a.40419.40419,0,0,1-.26914.06736c-.067-.13474.06738-.53937-.30262-.53937a.81988.81988,0,0,1-.84124.06738,1.06106,1.06106,0,0,0-.74036.472l-.84126.40462a11.423,11.423,0,0,0-2.55683,2.09087l-.84124.9105a2.7183,2.7183,0,0,1-.84126.9105c.10088-.37074.43739-.57286.43739-.80923-.06738-.06738.20212-.472.23561-.74188a3.38669,3.38669,0,0,1,.50475-1.28124,25.04356,25.04356,0,0,1,.84124-2.698,7.7801,7.7801,0,0,0-.43737-2.02348c0-.06739-.33649-.40463-.40387-.50588v-.16825l-.53824-.23637a3.78171,3.78171,0,0,0-1.61512-.37075c-.47125-.03352-1.00949-.13476-1.54773-.13476a3.13882,3.13882,0,0,0-1.51424.33688,6.5105,6.5105,0,0,1-1.91811.53974c-.63911.236-1.27823.43851-1.85.67449-.673.33688-1.21161.53939-1.78373.87664-.40348.16862-.90823.67449-1.34562.60711-.10085.10127.06738.10127.06738.16863-.80735.50587.20175.77537.437,1.31513a6.85131,6.85131,0,0,0-.60523.43812l-.26913.43849v.26989c-.20175.47238-.57213.74186-.77386,1.18037a1.12921,1.12921,0,0,0-.20175.40463.482.482,0,0,1-.16862.37074,4.94785,4.94785,0,0,0-.30263.74225,1.479,1.479,0,0,0-.16.36359c-.23376.10614-.49046.22771-.69784.3444l-.84124.16862a6.14739,6.14739,0,0,1-1.68249.472,9.61255,9.61255,0,0,1-1.64822.37074,7.4867,7.4867,0,0,0-.87512-1.01137h-.0335c-.6395-.60712-1.649-1.113-1.27862-1.98961.06738-.26989.26913-.43851.57213-.67451a12.433,12.433,0,0,0,2.456-1.68585c.20214-.13513.43738-.06777.40387-.37114-.16824-.13476.03351-.236.03351-.50587a15.30482,15.30482,0,0,1-1.81686-1.11262.31483.31483,0,0,0-.4035.03386l-.03387-.13512a4.55255,4.55255,0,0,0-.70649-.06736c-.0335,0,.06738.16862,0,.20248-.13474.33688-.47126.33688-.7065.67413-.13474.20251-.57211.30376-.606.60675a1.89981,1.89981,0,0,0-.23525.60712l-.20175-.13474a1.781,1.781,0,0,0-.303.53936c-.16826.10127-.0335-.06735-.20176-.03349a.96527.96527,0,0,1-.2691.43812l-.303.405-.53826.472c-.57211.43849-.976,1.04563-1.74986,1.61849-.47086.33761-.5721.43888-1.21122.91087a.91779.91779,0,0,0,.49345.47766,18.04259,18.04259,0,0,1-1.73782,1.512c-.43736.23562-2.3886,1.48375-2.55683,1.58463a7.44681,7.44681,0,0,1-3.93673,1.113,2.39765,2.39765,0,0,1-1.51424-.33725,7.03118,7.03118,0,0,1-2.32159-2.56288,2.597,2.597,0,0,1-.30262-1.21386c.33651-.03386.90825-.13513,1.21087-.13513.37036-.06738,1.07685-.06738,1.41334-.10124a1.4559,1.4559,0,0,1,.37-.13476,1.11528,1.11528,0,0,1,.53861-.16863c.03352-.06736.06738-.06736.30263-.236a.8624.8624,0,0,0,.53863-.10127c.13437-.10124.23561,0,.37,0a1.79124,1.79124,0,0,1,.84087-.4046,6.0626,6.0626,0,0,0,.47125-.472,6.16774,6.16774,0,0,0,.77386-.13513c.23563-.13474.40387-.53973.63911-.74188.70687-.26986,1.37987-.77573,1.37987-1.24774a1.67871,1.67871,0,0,0-.10087-.50588c-.303-.472-.40387-.60711-.80774-.74148a4.91033,4.91033,0,0,0-2.15336-.405,8.32745,8.32745,0,0,0-2.22071.26987c-.37.06738-.673.13513-.80738.16862-.77387.30337-1.58162.405-2.22073.6745-.60562.33725-1.2786.80926-1.85073,1.18037a10.6753,10.6753,0,0,0-1.00949.57325c-.23525.2695-.70648.37074-1.043.67413a3.04536,3.04536,0,0,1-.80735.80962c-1.54773.97786-1.51387,1.55111-2.62461,2.22561.03389-.10085.26914-.708.26914-.77574a1.84648,1.84648,0,0,1,.43773-.64063c-.06738-.87662.16826-.80924.50474-1.65236a7.47807,7.47807,0,0,0,.60563-1.85488,1.91313,1.91313,0,0,0,.303-.57323,7.95939,7.95939,0,0,1,1.44649-1.28127,3.21533,3.21533,0,0,1,.47086-.70836c.47125-.37076,1.00949-.80926,1.48075-1.21388a1.0699,1.0699,0,0,1,.5721-.50588c.10087-.10087.30263-.472.50438-.67412a7.07691,7.07691,0,0,0,.70686-.641c.26913-.10125.47089-.40461.67261-.50588a3.96378,3.96378,0,0,1,.90862-.944c.067-.13513.20175-.13513.30263-.26987a5.91838,5.91838,0,0,0,.74036-.53976,8.142,8.142,0,0,1,1.043-1.41637,1.04577,1.04577,0,0,0,.23563-.4046c.23562,0,.23562-.20215.303-.2695s.13437-.06738.20175-.10127c.13437-.37111,0-.6745.50435-.6745.16826-.57362,0-.70838.13477-1.18036a.501.501,0,0,1,.06738-.33725c.3026-.20212.3026-.43813.43736-.60714,0,0-.03388-.23561,0-.23561,0-.06775.16824-.06775.20175-.03387.10088-.13513-.10087-.37113-.06738-.53975.03387-.06738.20212-.0335.20212-.20251a.75677.75677,0,0,1-.03386-.13474.61339.61339,0,0,0,.10085-.13476,4.65328,4.65328,0,0,0,.16863-1.61849,2.3555,2.3555,0,0,0-1.00947-1.78751,6.61386,6.61386,0,0,0-.673-.43849h-.4035c-.03386,0-.03386-.16826-.20212-.0335a3.40106,3.40106,0,0,0-1.11037.43813,7.98664,7.98664,0,0,1-.74036.405,10.73429,10.73429,0,0,1-1.07648.77538,16.33638,16.33638,0,0,0-1.14386,1.21425c-.06738.20212-.26913.30336-.37.472-.5721.57326-1.04335,1.1804-1.5816,1.75365-.16825.10085-.13476.37111-.23563.43849a.83155.83155,0,0,0-.40387.33725,5.91777,5.91777,0,0,0-.23525.74148,3.23424,3.23424,0,0,1-.5721.47238,48.22508,48.22508,0,0,1-2.6581,4.14787A11.90135,11.90135,0,0,1,158.57277,14.75c-.03388.6745-.53863,1.55112-.53863,2.09087-.20175.10125-.60523,1.14651-.7065,1.3155-.16786.80887-.80735.91013-.87436,1.48336-.40387.37077-.976,1.18039-1.346,1.585-.24278.26311-.58192.5868-.92367.89846a4.55588,4.55588,0,0,0-.77537.31542c-.40387.06738-.303.16863-.74038.405-.06736,0-.77386.37074-.77386.33725a.92345.92345,0,0,1-.60525.236c-.40387.20212-.5721.10088-.77386.236-.23561.06735-.33648.37074-.673.236-.43736.16862-.33649.30375-.74036.40463-.13474-.0335-.26913.13513-.43736,0a1.82318,1.82318,0,0,1-.976.236,8.32152,8.32152,0,0,1-2.28773.37113,3.06586,3.06586,0,0,1-1.44685-.30375,1.64247,1.64247,0,0,1-.37038-1.113,4.21352,4.21352,0,0,1,.74038-1.98923c.26911-.43852.47123-.74188.80774-1.21389a2.02992,2.02992,0,0,1,.53825-.53973c.2691-.20212.37037-.30375.5386-.40463a1.51365,1.51365,0,0,1,1.1435-.80926,2.1573,2.1573,0,0,1,.33649,1.28125c.33649.33727.57213.80925,1.27862.94438a3.94021,3.94021,0,0,0,1.31249-2.59637c-.16826-.13513-.47125-.03386-.673-.30412-.10088-.0335-.10088-.20212-.10088-.20212-.06738-.03352-.13474,0-.23561-.10088,0-.10163-.16826-.30375-.23564-.30375a3.93955,3.93955,0,0,0-.673-.20212c-.33651-.06775-.673-.30375-.90825-.33725a9.73746,9.73746,0,0,0-2.086-.47237c.06738.26986-.16826.16862-.23562.26986-.10087.06775-.20214.33725-.37.4385-.16863.16862-.40387.16862-.63949.37076a1.01653,1.01653,0,0,0-.13476.33725c-.13437.16862-.37.16862-.53824.30375-.06738.06736-.06738.16863-.13474.40424-.33651.20251-.4035.50587-.57176.70838a.579.579,0,0,1-.23561.13511c-.16826.20214-.16826.37076-.37.60675a3.56971,3.56971,0,0,0-.40348.67451c-.10124.13474-.13476.472-.23564.57323-.06735.2364-.26911.43852-.26911.60714-.0572.34251-.18518.66019-.20324.91351-.62182.54991-1.25076,1.10132-1.61362,1.413-.10088.03389-.16823.10127-.26911.13513-.06738.10127-.10088.26989-.20175.33725a8.2691,8.2691,0,0,1-1.31249.97788c-.97561.50587-1.61472,1.07913-2.79247.60675a2.60845,2.60845,0,0,1-.40387-1.44987,7.70429,7.70429,0,0,1,.47125-2.36037c.10088-.26989.20175-.60713.30263-.84312.5721-1.349,1.48035-2.59676,1.31248-3.94575a2.56833,2.56833,0,0,0-2.72548-1.04524c-.37037.30375-.40387.9105-.74036,1.18037-.60562-.16862-.90825-.64063-1.58125-.6745a7.37554,7.37554,0,0,1-1.043.50588c-.37035.20248-.6056.57325-1.00947.60711-.26913-.10124-1.98512,1.38251-1.98512,1.38251a14.94073,14.94073,0,0,0-2.019,3.10224c-.03352.27024.16823.27024.10085.53974-.3026.03388-.13437.64063-.3026.84312.33649.60675.50474,1.01176,1.11037,1.31513a5.019,5.019,0,0,0,2.01859.472c.80774-.13477,1.78335-1.44987,2.11986-1.95577.16823-.13473.303-.50587.53861-.26986.13437,3.06875,1.44649,3.87837,4.6432,3.87837a6.01494,6.01494,0,0,0,3.43159-1.18037c.03388-.03388.03388-.13513.06738-.20251.10088-.06738.26911-.03349.33649-.06738a3.55323,3.55323,0,0,1,.40387-.33725c.16826-.10124.33649-.30336.53824-.40462.13476-.06775.26913-.33725.40387-.47238.096-.06963.19838-.15431.30187-.24428a6.01957,6.01957,0,0,1,.50514.85142A5.72312,5.72312,0,0,0,145.367,26.7216a8.1077,8.1077,0,0,0,3.19634-.472,7.08715,7.08715,0,0,0,.80737-.33725,1.77874,1.77874,0,0,0,.70687-.37114.58706.58706,0,0,1,.20175-.03386c.33649-.2695.97561-.236,1.34559-.64063,0,0,.23564-.0335.26913-.16862.16826-.16863.94212-.20251.84124-.50551a.85867.85867,0,0,0,.80774-.37111c.10088-.16862.60562-.16862.60562-.20251.16826-.13513.57213-.30336.673-.40463.20175-.13474.2691-.236.50474-.37074a1.62863,1.62863,0,0,1,.14489-.18105c.38694-.17164.90713-.40123.982-.42607a12.511,12.511,0,0,0-.23561,2.39423,9.9754,9.9754,0,0,0,.06738,1.38251c.13437.20249.23524.26987.16823.47238a5.76226,5.76226,0,0,1,.0335.80923c0,.13477.40389.236.43738.40463.30261.37075.84087,1.07913,1.44647.944a3.92484,3.92484,0,0,0,.2695-1.416c.50475.236.80737-.80926.94214-.97788a1.20352,1.20352,0,0,0,.37-.20288c0-.303.37-.70762.57213-.91013a13.92878,13.92878,0,0,1,1.21122-1.24775c.37-.30336,1.043-1.18037,1.6821-.77574.4039,0,.33651.40463.4039.50587a3.76358,3.76358,0,0,0,.74036,1.51762.73031.73031,0,0,0,.16823.10126c.06738.2695.10087.57326.37.708a8.53548,8.53548,0,0,0,1.00949,1.07913,6.71272,6.71272,0,0,0,2.62421,1.11262c.53864.10124.70687.23637,1.0095.169.23561-.06775,1.64861-.06775,1.88422-.169a12.83173,12.83173,0,0,0,2.9611-1.11262c.33649-.26987,1.51387-.9105,2.11947-1.31513a7.02652,7.02652,0,0,0,1.21124-.87662,5.34418,5.34418,0,0,1,1.17775-1.113,3.00588,3.00588,0,0,0,.63948-.91047c.10088-.16865.10088-.03352.30263-.33727a2.517,2.517,0,0,0,.39445-.66019c.08771-.07641.15695-.14379.24428-.21643.60562-.60711.70649-.57362,1.00949-.9105a1.91007,1.91007,0,0,0,.43739.97788c.03349,0,.57173.77537.60523.77537.2695.641.63948.6745,1.07687,1.34939a19.19406,19.19406,0,0,0-3.09547,2.09047c-.37.40463-.84125.64064-1.043,1.14651a1.09019,1.09019,0,0,1-.16826.10124c-.03349.0335,0-.06775-.03349,0-.20212.10127-.303.43812-.40387.57325a.826.826,0,0,0-.13477.40463c.16826.43849.77388.6745,1.14426.97788a9.39748,9.39748,0,0,0,.87473.405,5.30407,5.30407,0,0,0,1.95123-.23637c.74036-.30339,1.24511-.67452,1.81724-.87664.20173-.26987.60562-.50587.87473-.84312.20212-.20212.47125-.47238.63948-.64063a.74348.74348,0,0,0,.16826-.20249,1.18966,1.18966,0,0,0,.20175-.53937c.13437-.50587.23525-.50587.13437-1.01176a11.29973,11.29973,0,0,1,1.44686-.708,5.65223,5.65223,0,0,0,2.019-.70839,2.63675,2.63675,0,0,1,.42457-.19345,3.14779,3.14779,0,0,0,1.5771,2.38559.9707.9707,0,0,0,.7061.16823.8605.8605,0,0,1,.70689-.06736c.16824.10125.30261-.16862.47086-.16862.20212-.10088.43776-.03349.63949-.20212a2.71274,2.71274,0,0,0,.673-.50589c.06738-.06775.40387-.13511.47125-.30337.13437-.37113.77386-.53975.84087-.97788.13474-.23637.40387-.20248.50474-.3715l.50436-.87661c.16826-.20212.33649-.57326.50475-.74188.20212-.067.10124-.16826.20212-.30336,0-.10127.06738-.10127.06738-.10127a5.10753,5.10753,0,0,0,.60562-1.51761,1.56424,1.56424,0,0,0-.37038-1.61849c-.16825-.16826-.23524-.40463-.4035-.53939a1.92106,1.92106,0,0,0-.84124-.33762c-.60562-.20212-1.24473-.2695-1.81686-.472.37037-.53939,1.043-.64063,1.68213-.84275a6.13323,6.13323,0,0,1,1.78334-.57325,4.16617,4.16617,0,0,0,.976-.20251,4.08179,4.08179,0,0,1,.87473-.20212,19.53368,19.53368,0,0,1,1.9851.13437,6.96842,6.96842,0,0,1-.43737,3.10264.971.971,0,0,0-.20211.77574c0,.16862-.23562.37113-.26914.60711-.13473.16826-.06735.40463-.20172.67413,0,.23637-.16826.40463-.26914.60711,0,.20251.10088.2364-.03349.37077-.10127.06775-.10127.23637-.23564.33762,0,.26949.06738.43851-.06736.67412a8.83951,8.83951,0,0,0-.26913,1.55111,2.101,2.101,0,0,0,.40387,1.14688c.10088.20251,1.21085.37076,1.61473.50589.33651.20212,1.41336-1.349,1.74987-1.75364.5721-.30336.77386-.84312,1.17773-1.24775.16788-.13511.77348-.80923,1.00912-.84273.26911-.10127.26911-.23637.5721-.3715.26914-.20214.43739-.20214.60563-.40463a2.63151,2.63151,0,0,0,.50474-.33688c.43737-.13513.33652.97788.33652,2.19174a12.74509,12.74509,0,0,0,.06735,1.585,5.70309,5.70309,0,0,0,1.21125,3.10224,1.34435,1.34435,0,0,0,.43736.60714,4.65921,4.65921,0,0,0,1.54737.70836c.03386-.03386.5721.06738.606.03389.60562-.33764.47086-.23638.4035-.169a.57474.57474,0,0,0,.2695-.43812C212.69226,28.47522,211.98576,27.63174,211.81751,27.29485ZM163.216,13.098c-.10087.03349,0-.03389,0-.13513.90862-1.48375,1.5816-3.406,2.759-5.02449.20214-.33764.60562-.84351.87475-1.31549.10088-.13477.06736-.13477.06736-.16826a2.54744,2.54744,0,0,1,.53826-.6745,5.40624,5.40624,0,0,1,.80774-.94438c.16824-.20249.37-.20249.57174-.33725.23561-.236.303-.43849.606-.60675.03349-.06775.30263-.13513.43737-.27023a1.91114,1.91114,0,0,1,1.31211-.57326,1.92829,1.92829,0,0,1-.13473,1.04561,1.8933,1.8933,0,0,1-.50438.74188,4.076,4.076,0,0,1-.303,1.01176c.10088.13474-.06738.236-.10087.43849a2.06219,2.06219,0,0,0-.303-.03388.43107.43107,0,0,0-.03349.20251,4.39624,4.39624,0,0,1-.63951,1.24738c-.50475.43849-.90823,1.113-1.44686,1.61886a12.5679,12.5679,0,0,0-1.37911,1.585c-.13474.0335-.16823.2695-.20212.37075a1.44886,1.44886,0,0,0-.57173.43851,8.47663,8.47663,0,0,0-1.27863,1.21386,1.08432,1.08432,0,0,1-.673.4385c-.10126.33727-.303.57325-.50474.57325a5.65673,5.65673,0,0,0,.20175-.87662C163.216,12.99676,163.216,13.06414,163.216,13.098Zm-31.20648,6.10359a4.40369,4.40369,0,0,1-1.0765,1.61851,6.40578,6.40578,0,0,1-2.35548,2.057,12.00615,12.00615,0,0,1,3.29761-3.8106C132.07685,19.06651,132.07685,19.20162,132.00949,19.20162Zm33.52807,1.75325c.20212-.33725.47125-.33725.57213-.472.33649-.20214.87436-.47237,1.34561-.80925.13474-.03389.303-.10125.40387-.13474.10088,0,.20173-.169.303-.20251.37-.26987.80735-.37113,1.31209-.708.60563-.10127,1.07688-.169,1.58126-.23637.303,0,.13473.03386.03386.1351a10.10452,10.10452,0,0,0-1.91811,1.11262c-.74.30339-1.54773.43852-2.11984.74188a1.80714,1.80714,0,0,0-.74.43851A2.08161,2.08161,0,0,0,165.53756,20.95487Zm16.25082,6.67687c.16826-.37075.50475-.472.90825-.67413a4.215,4.215,0,0,1,1.48036-.877C183.807,27.025,182.831,27.32874,181.78838,27.63174Zm14.65267-8.7c.16825.06738,0,.06738,0,.13476a.41045.41045,0,0,0,.37.20249c-.067.60675.47088.74151.33651,1.34862a3.74078,3.74078,0,0,1-.94174,1.61888,6.96483,6.96483,0,0,1-1.952,1.61886c-.33651.23564-1.043.74151-1.54773.64025-1.21088-.23562.40387-3.10223.77385-3.54074a7.4402,7.4402,0,0,1,1.17775-1.31513c.26911-.16862,1.07685-.236,1.00947-.77574-.06736-.13437-.26911-.06738-.40387-.30336C195.63367,18.18987,196.13842,18.5945,196.44105,18.93175Z"/><path class="cls-1" d="M128.07316,6.89278c.16823-.37074.63948-.57325,1.04335-.84312-.13473-.06738.23564-.236.0335-.64024.13476.0335.16826-.169.33651-.169.0335.03388.0335.20251.16824.20251,0-.16863.03388-.20251.10087-.236.23564-.10163.40387.16862.50475,0-.10088-.23637-.53824-.33725-.47086-.74188-.50475-.47237-1.41337-.37113-1.88462-.97824-.20175-.30337-.53824-.13474-.673-.236-.53824-.16862-.70647-.472-1.14384-.57325-.23525-.6745-.37-.13511-.74.10126a1.26966,1.26966,0,0,0-.13476-.53939c-.10088.33689-.26911.60675-.673.57326.10127.33688-.10085.2695-.20172.472-.23564.472-.60563.74148-.673.97785-.63911.80926-.87473,1.61889-1.85073,1.8545-2.22034.5059-4.20583,1.1469-6.49356,1.82139a19.11282,19.11282,0,0,0-3.19634,1.28125c-.53824.13512-1.78335.80962-2.32159.944a10.814,10.814,0,0,0-1.85073,1.48412c-.43736.50587.57211,1.21386.90862,1.45026a8.76685,8.76685,0,0,0,2.35508,1.48373c.74039.20212,1.95161.74151,2.42249.33688.90862-.77537-2.22034-1.71976-2.11947-2.25949.0335-.57289,1.91772-1.11262,2.28771-1.34863a10.73543,10.73543,0,0,0,2.389-.877,3.66739,3.66739,0,0,0,1.37947-.37075,1.55676,1.55676,0,0,1,1.0095-.43849c.63911-.10087,1.58159-.94438,2.25423-.87663-.20175.50587-.33612,1.48375-.47089,1.585.13477.236-.20175.50551-.20175.91013a1.678,1.678,0,0,1-.06735.53974,4.633,4.633,0,0,0-.303,1.48375c.10085-.30336.06736-.57325.20212-.708a5.84,5.84,0,0,1-.16826,1.24775c-.16825.472-.40387,2.59637-.606,2.90012-.13437.33725-.067.80924-.16786,1.14612-.06738,1.113-.23564,7.1831-.63951,7.79024-.13474.37074-1.68247,2.057-2.35508,2.12436a3.72848,3.72848,0,0,1-1.91811-.10124c-.60562-.13476-1.81687-1.01177-2.01862-.944a1.53367,1.53367,0,0,1-.63912-.67486,5.46809,5.46809,0,0,0-1.48072-.70762c-.26913-.13513-.53824-.27026-.90861-.4385,0-1.11261-.40351,0-.84126-.16862a2.85171,2.85171,0,0,0-.20173,1.48373c.50475.13513.63948,1.24775.84124,1.61851a3.76965,3.76965,0,0,0,1.21124,1.45024,7.327,7.327,0,0,0,4.54232,1.416,6.46587,6.46587,0,0,0,1.78335-.13476c.37-.10087.80737-.06738,1.11-.37074a3.79224,3.79224,0,0,1,.80774-.26987c.20175-.13476.40387-.40463.673-.64063.20175-.169.47125-.236.673-.40463a7.42134,7.42134,0,0,0,1.07685-1.78748c-.303-.87664.53825-1.65238,1.00913-2.25913a7.65566,7.65566,0,0,0,.673-2.934c.33651-1.21389.43739-2.36037.673-3.54113.16826-.57288,1.00949-3.64161,1.00949-4.04661.16824-.53939,2.0186-6.27223,2.79248-7.0476C127.2319,7.0949,127.73665,7.12879,128.07316,6.89278Z"/><path class="cls-1" d="M213.197,28.77861l.03349-.03389A.03292.03292,0,0,0,213.197,28.77861Z"/><path class="cls-1" d="M27.05047,23.30748c-.303.03387-.13474.641-.303.84312.33649.60712.50475,1.01175,1.11037,1.31513a5.0174,5.0174,0,0,0,2.01859.472c.80775-.13474,1.78338-1.44987,2.11987-1.95574.16823-.13513.303-.50587.53824-.26987.13473,3.06873,1.44685,3.878,4.6432,3.878a6.0094,6.0094,0,0,0,3.432-1.18036c.03389-.03352.03389-.13476.06738-.20215.10088-.06735.26911-.03349.33649-.06735a3.55165,3.55165,0,0,1,.40387-.33725c.16826-.10088.33652-.30339.53825-.40463.13437-.06775.26913-.33725.4035-.472a7.13348,7.13348,0,0,0,1.68247-1.85486c.06249-.09373.16713-.24127.28-.4084a2.39255,2.39255,0,0,0,.59435-.5021c.33649-.33725.63948-.33725.80774-.84312.03349-.06738.63911-.43849.74036-.57325.50474-.60675.30262-.40463.80737-1.07913.23561-.16862.26911.26987.6056.236.26913.20248.63912.20248.74.57362a16.26966,16.26966,0,0,0-1.24474,6.06972,6.639,6.639,0,0,0,.20175,1.88838,4.29986,4.29986,0,0,0,.20215.60712,7.29914,7.29914,0,0,0,.37.9105A3.0558,3.0558,0,0,0,51.14083,31.03a2.26984,2.26984,0,0,0,1.17736-.64061,9.12465,9.12465,0,0,1-1.37911.16863c-.16823-.20251.0335-.20251-.13474-.37114-.10087-.06738-.30262-.03349-.47088-.16862L50.2996,29.917a3.04577,3.04577,0,0,1-.37-1.18,8.751,8.751,0,0,1,.37-3.20388,7.80972,7.80972,0,0,1,.303-1.44987c.0335-.03386.20175-.16862.20175-.20248A14.58357,14.58357,0,0,0,51.343,22.161a6.10154,6.10154,0,0,0,.60526-.9105c-.20176-.13474-.50438-.236-.40351-.708a2.03646,2.03646,0,0,1-.33649-.23638c-.20175-.30338-.20175-.43812-.47125-.57325,0,0-.03349-.13476-.10087-.13476a.43135.43135,0,0,0-.33649-.13474,3.47738,3.47738,0,0,0-.57213-.40463c-.37-.16862-.94211-.03386-1.17773-.47237a14.43852,14.43852,0,0,0,1.04336-2.02312,8.148,8.148,0,0,0,.64589-3.43986h.7671c.10088,0,.23525-.10125.40387-.13476.53825-.03387.94212.06738,1.44647.06738a3.54983,3.54983,0,0,0,.87476-.06738c.303-.03387.673.10087,1.043.10087,1.31249.06775.13474-.13474,1.41337.03389-.30263.944-1.54774,4.3165-1.85073,5.463a17.45626,17.45626,0,0,0-.50475,3.27126,9.21479,9.21479,0,0,0-.20175,2.293,7.58717,7.58717,0,0,0,1.043,3.94537,3.20233,3.20233,0,0,0,1.21161.9105,1.4551,1.4551,0,0,0,.84123.03386c.067,0,.16789-.30336.33613-.10124.10124-.13474-.13437-.236-.16824-.30337a4.77906,4.77906,0,0,1-.37-1.92224,25.50672,25.50672,0,0,1,.06738-2.765c.16823-1.28163.9756-4.95749,1.07648-5.26088a9.25617,9.25617,0,0,1,.53824-2.25949c.06738-.13474,1.07687-3.001,1.27862-3.1696.10088-.10127,1.44686-.03389,1.74986-.10127,2.3886-.16862.87473,0,3.19634-.20249a6.71536,6.71536,0,0,1,1.61509-.10087,55.99744,55.99744,0,0,0-1.85073,6.06972,11.16823,11.16823,0,0,0-.23561,3.406c.06738.33725.06738.57325.10124.80963,0,.20212.33651.53936.30263.74151-.13474.26986-.74036.16862-.84124.26986.303.20212.60562.37111.90862.53976a1.57531,1.57531,0,0,1,.303.10085c.067.10127.067.30376.13437.33764a1.95354,1.95354,0,0,1,.26914.13474c.06735.03352.06735.03352.20212.10088.10087-.10088.3026.16862.47086.16862.06738,0,.26913-.13474.40387-.13474a2.469,2.469,0,0,0,.77387.16862,4.38332,4.38332,0,0,0,1.07649-.77576c.53824-.30336.976-.64061,1.51424-1.01174a.826.826,0,0,1,.47122-.30336,7.50778,7.50778,0,0,1,.74-.70838,3.618,3.618,0,0,0,.80737-.472c.20175-.16826.30263-.33688.50475-.53939.16825-.236.74036-.6745.90861-.50587.20175.10124.10088.472.067.877a7.46187,7.46187,0,0,0-.16823,1.71937c.03386.53976.10124,1.04563.10124,1.48375a4.87963,4.87963,0,0,1-.13474.97825,4.35747,4.35747,0,0,0,1.37948,2.69762,2.54346,2.54346,0,0,0,1.2786.37111,3.4787,3.4787,0,0,0,1.61512-.43849,9.2122,9.2122,0,0,0,.94211-.37075c.10087-.13513,1.21124-.77576,1.27862-.84312.50475-.30375,1.64861-1.72012,2.05209-2.057a2.274,2.274,0,0,0,.30715-.326,2.03542,2.03542,0,0,0,.21416.12346,5.019,5.019,0,0,0,2.0186.472c.80737-.13474,1.78337-1.44987,2.11986-1.95574.16825-.13513.30262-.50587.53824-.26987.13476,3.06873,1.44649,3.878,4.6432,3.878a6.00948,6.00948,0,0,0,3.432-1.18036c.03349-.03352.03349-.13476.06735-.20215.10088-.06735.26914-.03349.33652-.06735a3.578,3.578,0,0,1,.40348-.33725c.16825-.10088.33651-.30339.53863-.40463.13437-.06775.26911-.33725.40348-.472a7.14053,7.14053,0,0,0,1.68249-1.85486c.20175-.30375.84124-1.14651.80738-1.55114v-.16862c-.16826-.236-.47089-.13511-.77388.13476-.7065.641-2.42247,2.15825-3.129,2.76537-.10088.03349-.16826.10087-.26914.13476-.06735.10124-.10087.26986-.20211.33725a8.26292,8.26292,0,0,1-1.31212.97824c-.97561.50548-1.61473,1.07874-2.79245.60675a2.60764,2.60764,0,0,1-.40387-1.45026,7.71592,7.71592,0,0,1,.47086-2.36036c.10124-.26987.20212-.60712.303-.84312.57213-1.349,1.48035-2.59638,1.31212-3.94537a2.567,2.567,0,0,0-2.72548-1.04563c-.37.30376-.40348.9105-.74,1.18037-.606-.16862-.90862-.64061-1.58123-.6745a7.31835,7.31835,0,0,1-1.04336.50588c-.37.20251-.60562.57325-1.00949.60713-.26913-.10126-1.98512,1.38249-1.98512,1.38249a14.96711,14.96711,0,0,0-2.0186,3.10225c-.03349.27025.16826.27025.10088.53975-.17127.01919-.19157.2217-.20777.43059a36.77669,36.77669,0,0,1-3.44213,3.54864,11.01792,11.01792,0,0,1-1.24511.74188,2.14409,2.14409,0,0,1-1.51385.30375c-.16825-1.113.43737-2.19211.60562-3.17a.91189.91189,0,0,1,.03387-.40463c.13437-.47238.60525-1.01175.807-1.65238a9.8422,9.8422,0,0,1,.47125-2.02349c.0335-.26986.20175-.33724.30263-.57325.03386-.26987-.16826-.64061-.16826-.87661a1.34676,1.34676,0,0,0-.40348-.37114,2.01518,2.01518,0,0,0-.63912-.26986c-.16825-.10088-.23563-.30339-.40387-.40463a2.15739,2.15739,0,0,0-1.17774-.74188A5.11989,5.11989,0,0,0,72.304,18.047a14.90453,14.90453,0,0,0-3.66721,1.821,1.35093,1.35093,0,0,1-.74038.40463c.13476-.57364.20175-1.24775.37-1.821.13474-.16863.13474-.472.20212-.57325.43736-1.18037.84123-2.29338,1.21124-3.30512a2.9479,2.9479,0,0,1,.26911-.64025,4.8193,4.8193,0,0,1,.50475-1.24814,7.32043,7.32043,0,0,1,1.21124-.40423c.13437-.06775.33649-.169.50475-.23638a3.49137,3.49137,0,0,0,.74-.13476,1.69106,1.69106,0,0,1,.23561-.10124.55983.55983,0,0,0,.37038-.13474c1.6821-.50587,3.36421-1.38251,4.94583-1.98962.87512-.40463,1.68247-.9105,2.48984-1.38251A8.24461,8.24461,0,0,0,82.499,6.78376a1.99453,1.99453,0,0,1,.303-.67449c.13437-.16863.23561-.16863.37-.4385l.06738-.77576a2.51333,2.51333,0,0,0-.47125-2.057,10.23923,10.23923,0,0,0-.87473-.77537,24.60548,24.60548,0,0,0-2.28772-.944A4.17867,4.17867,0,0,0,78.5623.781a7.64879,7.64879,0,0,0-2.389-.37074c-.0335.20249-.13437.2695-.3026.236a.44585.44585,0,0,1-.7065.06735c-.13437.405-.53824.37114-.7065.708.26913,0,.43737-.33688.80737-.20214a3.82821,3.82821,0,0,1-1.00949.60674,1.25133,1.25133,0,0,1-.37.03389c-.16823.13474-.23561.37113-.43736.57325-.16824.16863-.50475.20249-.63949.37074-.10087.13513-.13437.27026-.20175.33762a.593.593,0,0,1-.26913.16826c-.06736.10124-.03386.169-.06736.23637-.03388.06738-.13476.06738-.16825.06738a1.09275,1.09275,0,0,1-.20212.10124,1.29629,1.29629,0,0,1-.16787.40463c-.20214.33725-.53826.57325-.74.9105-.13476.10124-.13476.26987-.20214.33725-.067.16862-.20173.16862-.30261.30338-.06738.03387-.06738.20212-.16825.26987-.23562.236-.70687.708-.60563,1.04524-.303-.06736-.40387.40463-.50511.53976-.10088.20248-.37.33725-.57174.60711-.20214.236-.33651.60675-.57212.87664-.10088.33725-.16826.26987-.26913.57323-.13474.30339-.20212.236-.43737.64063-.16826.37075-.303.877-.47125.94439a2.10351,2.10351,0,0,1-.50436.26987,17.91423,17.91423,0,0,1-2.15372.2695c-1.21124.03386-1.64861.06774-2.22037.06774-.47086,0-1.043-.03388-2.22071-.06774a6.52355,6.52355,0,0,1,.16823-.6745,3.11356,3.11356,0,0,0,.26913-.67413,8.26484,8.26484,0,0,0,.47126-1.24775c.067-.20251.3026-.77574.33649-.94438.13437-.43813.13437-.43813.4035-.64061a3.827,3.827,0,0,0,.20212-1.01175c0-.20212.13437-.472.06738-.641a1.75949,1.75949,0,0,1-.37038-.303.72392.72392,0,0,0-.30262-.40463A.76.76,0,0,0,60.22511,5.3c.16826.43851-.03349.64063-.303.97788-1.14386,2.12436-1.51387,1.88836-2.55686,4.14787A4.31172,4.31172,0,0,1,56.894,11.5045c-.20175.03388-.60562-.10088-.90825-.10088-2.05284-.236-1.61511-.33725-3.46547-.472a6.52408,6.52408,0,0,0-4.71056,1.21387c-.13476.13513-.33651.37074-.50474.40463-.13477.13473-.33652.10124-.43737.236.067.06775,0,.13513.13437.20249a.43707.43707,0,0,1,.12006.01243l-.01882.02108a2.45231,2.45231,0,0,0-.63911.80963c0,.03349-.13476.10124-.16826.13474-.03386,0,.0335.06738,0,.16862,0,0-.16823-.06775-.20212,0,0,.03389.03389.13474,0,.20251,0,.03386-.16825.03386-.20175.06736a4.89784,4.89784,0,0,0-.37.94438,5.89739,5.89739,0,0,0-.37038,2.25913c0,.03349.20212.236.20212.26987.16826.53936-.03386.16862.20175.50587a2.569,2.569,0,0,1,.43737.40463,6.92018,6.92018,0,0,1-.53824.87661,7.91832,7.91832,0,0,1-.80775.877c-.37.40463-.37.40463-.87473.97785a12.90847,12.90847,0,0,1-1.413,1.21389.216.216,0,0,0,.12194.17389c-.59544.5262-1.18751,1.04487-1.53494,1.34373-.10085.03349-.16823.10087-.26911.13476-.06738.10124-.10087.26986-.20175.33725a8.268,8.268,0,0,1-1.31248.97824c-.97561.50548-1.61512,1.07874-2.79248.60675a2.61081,2.61081,0,0,1-.40387-1.45026,7.71534,7.71534,0,0,1,.47125-2.36036c.10088-.26987.20176-.60712.30263-.84312.5721-1.349,1.48035-2.59638,1.3121-3.94537a2.56639,2.56639,0,0,0-2.72509-1.04563c-.37038.30376-.40387.9105-.74036,1.18037-.60563-.16862-.90862-.64061-1.58162-.6745a7.3123,7.3123,0,0,1-1.0426.50588c-.37.20251-.60562.57325-1.00949.60713-.26913-.10126-1.98549,1.38249-1.98549,1.38249a14.96508,14.96508,0,0,0-2.0186,3.10225C26.91573,23.038,27.11785,23.038,27.05047,23.30748Zm60.44442-3.97925c.20173,0,.20173.13513.13474.13513a4.4045,4.4045,0,0,1-1.07685,1.61849,6.40716,6.40716,0,0,1-2.3555,2.05738A12.0167,12.0167,0,0,1,87.49489,19.32823ZM71.39574,10.12238c.26913-.40463.47088-.80924.80737-1.24812.0335-.10087.13474-.16825.20175-.30338.20212-.236.23562-.472.40387-.6745a4.41057,4.41057,0,0,1,.40387-.50587,2.31034,2.31034,0,0,0,.10088-.2695,1.5635,1.5635,0,0,1,.23561-.23637A13.05794,13.05794,0,0,1,74.626,5.67077a.96422.96422,0,0,1,.87473-.57325l.03349-.40463c.50475-.33724.80738-.94438,1.3795-1.24775.16824-.10124.37-.03388.47123-.13512.26913-.23562.37-.40463.7065-.472a1.17093,1.17093,0,0,1,.40387-.10088A2.51348,2.51348,0,0,1,79,2.4334c.20176-.20212.77388-.16862,1.14387-.03388.03349,0,.03349.10163.06738.10163.37.13474.53824.236.67261.53937.20175.30338.13476.236.13476.57325.067.03388.10085.03388.13437.10124a2.64758,2.64758,0,0,1,.13474,1.85489,6.41726,6.41726,0,0,1-2.92721,2.73148,14.56547,14.56547,0,0,1-2.79247,1.07875,10.11278,10.11278,0,0,1-1.6825.64061,1.03185,1.03185,0,0,1-.40387.169,11.72706,11.72706,0,0,0-1.14386.30336c-.20212.06738-.50475.06738-.673.26989-.23564-.13513-.40387.23561-.63912.06736C71.02575,10.52664,71.261,10.35838,71.39574,10.12238ZM48.28061,14.8435c.06738-.06775.23562-.03388.26913-.169a.63371.63371,0,0,1-.13437.53976c-.26913.67449-.74038,1.349-1.0765,2.19211C47.10325,16.29337,48.11236,15.754,48.28061,14.8435ZM33.40927,19.32823c.20175,0,.20175.13513.13476.13513a4.40455,4.40455,0,0,1-1.07687,1.61849,6.40586,6.40586,0,0,1-2.35509,2.05738A12.01549,12.01549,0,0,1,33.40927,19.32823Z"/><path class="cls-1" d="M27.48822,31.60321a.455.455,0,0,0,.33649-.236c-.47086-.50587-1.07687-.84312-1.51423-1.38288a7.00654,7.00654,0,0,1-1.61473-4.0801c-.03349-.37113-.10087-.74187-.10087-1.113,0-.13474.10087-.30336.10087-.50587.0335-.236-.06738-.50587-.03349-.64061,0-.26989.13437-.57325.16823-.877.03349-.33688,0-.80887.03349-1.11262.13477-.708.43739-1.38249.53827-2.057.03349-.20249-.06738-.4046,0-.60711.06736-.472.3026-.87662.33649-1.38249a11.204,11.204,0,0,1,.37-1.31513,2.04932,2.04932,0,0,1,.10088-.43849,14.02166,14.02166,0,0,0,.84124-3.878,2.42867,2.42867,0,0,0-.16824-1.1465,2.231,2.231,0,0,0-.63951-.60712,2.79491,2.79491,0,0,0-.74-.10087c-.06736,0-.06736-.10164-.10085-.10164a1.35962,1.35962,0,0,0-.74,0c-.16826.06777-.40387.06777-.43776.10164a3.58417,3.58417,0,0,0-1.21124,1.24775c-.13474.13437-.33649.33688-.37.37074-.03388.10126.0335.37076-.03388.50587-.13437.30339-.37.60714-.53824.944-.43737.472-.87474.84312-1.27861,1.28161a4.603,4.603,0,0,1-.50437.9105c-.10088.16862-.40388.16862-.47126.30336-.13437.13513-.20172.33727-.33649.5059-.70649,1.18036-1.61511,2.46161-2.35547,3.642-.87473,1.113-1.54737,2.42774-2.48948,3.50724-.06738.10126-.20212.40462-.33649.33724a3.02884,3.02884,0,0,1,.33649-1.55111,1.20637,1.20637,0,0,0,.13437-.37113,4.33356,4.33356,0,0,0,.03389-.9105c0-.16862.16826-.30336.16826-.53974,0-.10126-.06739-.23563-.06739-.30338.0335-.26987.26911-.472.26911-.6745.03352-.20212-.06735-.30336-.03349-.50587.03349-.16862.16826-.37074.20175-.57325,0-.13474-.10088-.33688-.10088-.53937a4.75069,4.75069,0,0,1,.13477-.67449,13.752,13.752,0,0,0,.23524-2.057c.13474-1.45023.40387-2.83274.6056-4.21523a9.025,9.025,0,0,0,.37-1.65238,6.467,6.467,0,0,0-.0335-2.15825c-.23563-.43849-.23563-.26986-.57176-.57362-.16823-.03349-.20211-.23563-.33649-.26949a3.17037,3.17037,0,0,0-2.49021.16862c-.06738.16862.26911.03388.26911.20212-.4035.40463-.90822.70838-1.11037,1.113-.16823.20248-.13437.50587-.20175.70836a5.31637,5.31637,0,0,0-.50435.708c-.70687,1.07912-1.31249,2.12436-2.05285,3.1696-.7065,1.38288-1.44686,2.76576-2.11949,4.11438a42.26485,42.26485,0,0,0-2.18722,4.24912,5.34379,5.34379,0,0,0-.43737.87661,2.83465,2.83465,0,0,0-.16825.6745,10.78184,10.78184,0,0,0-.63912,1.1465A17.977,17.977,0,0,0,2.9936,25.49959c0-.77573.40387-2.12475.30262-2.15824a9.57345,9.57345,0,0,1,.23562-1.78712,7.804,7.804,0,0,1,.10087-.877c.06739-.57326.37038-1.04524.47126-1.55112.03349-.10124-.03389-.30375,0-.47237.03349-.16826.20175-.37075.23561-.53937.13437-.40463.16826-.84314.30263-1.21388a8.59516,8.59516,0,0,0,.303-1.04561c.10088-.16865.26913-.236.30263-.37077.03386-.26986,0-.60711.03386-.91086A3.46506,3.46506,0,0,1,5.6182,13.528a1.00235,1.00235,0,0,0,.06736-.40463c.26913-.94439.43739-1.71976.60562-2.56288a6.05961,6.05961,0,0,0,.40387-1.75325c.16789-.53974.20176-1.14687.33613-1.82137a6.77048,6.77048,0,0,1,.20175-.87661,2.27315,2.27315,0,0,1,0-.6745c0-.33725.20212-.60714.13476-.87664a3.16817,3.16817,0,0,0-.80737-.94436,7.47671,7.47671,0,0,0-1.74986-.6745c-.90861-.236-1.413,0-1.48037.6745.10087.236.30262.236.33651.43849a4.68912,4.68912,0,0,1-.16826,1.21389,8.39266,8.39266,0,0,1-.20212,1.07912,66.66477,66.66477,0,0,0-1.3791,6.64335C1.47975,15.61887,1.04236,18.519.80675,21.14923c-.03389.405-.13474.80963-.13474,1.14651,0,1.01174-.10088,1.75362-.16826,2.59674v.60711c-.03349.91014.16826,1.888.16826,2.73151a8.1835,8.1835,0,0,0-.03352.87661c.03352.43851.43739.9105.43739,1.28163,0,.33725-.303.472-.23564.84312.13476.43813,1.61512,1.24736,2.05248,1.34863a1.69734,1.69734,0,0,0,.97563-.16863,2.7499,2.7499,0,0,0,.23562-.67412,5.61681,5.61681,0,0,0,.23561-.67489,41.882,41.882,0,0,0,1.346-4.14785c.33651-1.04526.47089-2.057.87476-2.96712.10087-.20251.10087-.47237.20175-.641.10087-.2695.303-.43851.33649-.67413a2.01816,2.01816,0,0,1,.26913-.67449A7.02146,7.02146,0,0,1,7.6368,21.284c.10087-.23561.40387-.4046.47088-.60674a1.87562,1.87562,0,0,0,.26948-.60675,3.49522,3.49522,0,0,1,.33651-.60712c.20175-.37113.37-.80962.60562-1.21425a8.40592,8.40592,0,0,1,.673-1.07913c.13437-.20211.20175-.40462.33649-.60674a3.66706,3.66706,0,0,0,.37-.60712c.10088-.37113.10088-.77576.23561-1.21388.06738-.20249.20176-.37075.26914-.60712a16.04883,16.04883,0,0,0,1.0091-2.36037,3.03865,3.03865,0,0,1,.673-1.14687c-.53824,2.36074-.80737,4.85623-1.14386,7.35173a43.2721,43.2721,0,0,0-.40351,5.09187,16.00079,16.00079,0,0,0,.16789,2.52936c.03387.33688-.30262,0-.23524.2695.40348.60714.84084,1.55113,1.61472,1.85488.10088.03387.43737,0,.63948.03387a1.344,1.344,0,0,0,.63912.06738c.23564-.03389.57213-.405.74038-.47238.20176-.06738.30263-.0335.40388-.13474A2.36762,2.36762,0,0,1,15.6111,26.68c.13474-.16862.303-.27023.40387-.405a14.65248,14.65248,0,0,0,1.14387-1.48376c.10085-.13474.23524-.2695.37-.472.40387-.64064.94211-1.38251,1.346-2.05738a21.66732,21.66732,0,0,1,1.346-2.057c.23564-.472.63912-.91011.84087-1.3486a.70986.70986,0,0,1,.13476-.37077c.0335-.10124.16824-.10124.23525-.23637.06736-.03386.13474-.236.20212-.37074.23525-.37075.47086-.6745.63912-.97788a6.53777,6.53777,0,0,1,.70686-.84312,38.804,38.804,0,0,0-.606,6.60948,25.798,25.798,0,0,0,.13474,2.83274,4.45233,4.45233,0,0,1,.10088.708c.03388.16863.20212.30376.23563.57326.0335.20251,0,.57325.0335.70838a9.38841,9.38841,0,0,0,1.5481,2.66412C25.09962,30.86133,26.277,32.143,27.48822,31.60321Z"/></g></svg>